<svg width="84" height="84" viewBox="0 0 84 84" fill="none" xmlns="http://www.w3.org/2000/svg">
<path fill-rule="evenodd" clip-rule="evenodd" d="M43.1823 8.80134C43.867 8.81532 44.5199 9.09194 45.0065 9.5738L47.9313 12.4654L48.0202 12.5416C48.1136 12.612 48.22 12.6646 48.3336 12.6949C48.4854 12.7353 48.6455 12.7354 48.7975 12.6959L52.777 11.6549L53.027 11.6021C53.6135 11.5066 54.218 11.6091 54.7428 11.898C55.3425 12.2283 55.7928 12.7766 55.9997 13.4293L57.2467 17.3492L57.2897 17.4586C57.3397 17.5643 57.4103 17.6599 57.4967 17.7398C57.6122 17.8464 57.7531 17.922 57.9059 17.9586H57.9049L61.9147 18.8853H61.9137C62.5807 19.0392 63.1641 19.4433 63.5417 20.0142C63.919 20.5851 64.0625 21.2799 63.943 21.9537L63.2243 26.0045C63.1976 26.1591 63.2115 26.3186 63.2643 26.4664C63.3171 26.6137 63.4068 26.7457 63.5251 26.8482H63.526L66.6442 29.5308C67.1632 29.9772 67.4904 30.6066 67.5592 31.2877C67.6279 31.9687 67.4326 32.6509 67.0133 33.192L67.0124 33.191L64.4958 36.4478C64.4 36.5721 64.3381 36.7192 64.3161 36.8746C64.2941 37.0299 64.3124 37.1885 64.3698 37.3345L65.8854 41.1597C66.1379 41.7961 66.1362 42.5061 65.8805 43.1412C65.6568 43.6968 65.2535 44.1587 64.7389 44.4556L64.5114 44.5728L60.7702 46.2818C60.6278 46.3478 60.5054 46.4504 60.4137 46.5777C60.3449 46.6733 60.2949 46.7813 60.2672 46.8951L60.2467 47.0103L60.1022 48.3677C60.1554 48.4385 60.1981 48.5167 60.2282 48.6002L68.4733 68.7662L68.5104 68.8775C68.5405 68.9914 68.5479 69.1107 68.5309 69.2281C68.5082 69.3844 68.4438 69.5322 68.3444 69.6549L68.3434 69.6539C68.2447 69.7765 68.1157 69.8714 67.9684 69.9273C67.821 69.9833 67.661 69.9995 67.5055 69.9732H67.5045L58.4977 68.4019L53.7038 75.5963C53.6221 75.7183 53.5106 75.8182 53.3805 75.8863C53.2515 75.9537 53.1072 75.9869 52.9616 75.9849V75.9859H52.8815L52.8717 75.9849C52.7124 75.9691 52.5598 75.9105 52.4313 75.815C52.3031 75.7196 52.2033 75.5907 52.1422 75.4429L52.1413 75.442L44.5563 56.8892L42.6872 55.7759V55.775C42.5523 55.6951 42.3986 55.6515 42.2419 55.648C42.0847 55.6446 41.9292 55.6822 41.7907 55.7564L41.7897 55.7554L39.9059 56.7808L36.9342 64.0425C36.9177 64.0988 36.8952 64.1528 36.8678 64.2047L34.5358 69.9058C34.5278 69.9286 34.5193 69.9511 34.5094 69.9732L32.1901 75.6431C32.1315 75.7927 32.0333 75.9241 31.9059 76.022C31.7777 76.1206 31.6243 76.182 31.4635 76.1998L31.4528 76.2008H31.3708C31.2255 76.2008 31.0819 76.1654 30.9538 76.0972C30.8256 76.029 30.7165 75.9296 30.6354 75.8092L30.6344 75.8082L25.8405 68.6119L16.8356 70.1832C16.6803 70.2102 16.5203 70.1947 16.3727 70.1392C16.2253 70.0838 16.0948 69.9902 15.9958 69.8677C15.8969 69.7452 15.8324 69.5977 15.8092 69.442C15.7861 69.286 15.8057 69.1252 15.8649 68.9791L20.1764 58.4322C20.1806 58.405 20.1863 58.3779 20.193 58.3511C20.2201 58.2439 20.2675 58.1431 20.3317 58.0533L24.6754 47.4283L24.6002 46.2799L24.5846 46.1636C24.5616 46.0488 24.5159 45.9386 24.4508 45.8404C24.3642 45.7098 24.2448 45.6038 24.1051 45.5328L20.4352 43.6724C19.8246 43.363 19.3556 42.8309 19.1256 42.1861C18.8958 41.5413 18.9218 40.8325 19.1989 40.2066L20.8659 36.4468L20.9059 36.3365C20.9385 36.2249 20.95 36.1071 20.9381 35.9908C20.9223 35.8358 20.8661 35.6873 20.776 35.5601L18.3942 32.2086C17.9973 31.6508 17.8294 30.9616 17.9254 30.2838C18.0217 29.6058 18.3752 28.9905 18.9118 28.565L22.1354 26.0074C22.2582 25.91 22.354 25.7825 22.4127 25.6373C22.4714 25.4921 22.4909 25.3335 22.4704 25.1783L21.9186 21.106L21.8961 20.8511C21.8716 20.2573 22.0463 19.6696 22.3961 19.1832C22.7961 18.6273 23.3941 18.2457 24.067 18.1187L28.109 17.355L28.2223 17.3258C28.3335 17.2891 28.4371 17.2311 28.527 17.1549C28.6467 17.0532 28.7385 16.9214 28.7926 16.774L30.195 12.9058H30.196C30.4303 12.2633 30.9021 11.7351 31.5143 11.4302C32.1265 11.1255 32.8321 11.067 33.486 11.2672L37.4206 12.4683C37.5711 12.5134 37.732 12.5195 37.8854 12.4849C38.0387 12.4504 38.1809 12.3763 38.2975 12.2711L41.3278 9.4986L41.5241 9.33552C41.9995 8.97845 42.583 8.78914 43.1823 8.80134ZM52.8922 75.7867H52.9616L52.9606 75.7857H52.8922V75.7867ZM22.0465 58.5308L27.0231 67.1959L31.1852 73.4429L32.7135 69.7027L23.4577 55.0777L22.0465 58.5308ZM59.6344 51.816C59.4739 52.2145 59.2195 52.5725 58.8864 52.855C58.3636 53.2985 57.6899 53.5242 57.0055 53.4849V53.484L52.8932 53.2681H52.7731C52.6566 53.2757 52.5424 53.3066 52.4372 53.359C52.297 53.4287 52.1773 53.5345 52.0915 53.6656L52.0905 53.6666L49.8044 57.0875L49.8034 57.0894C49.5579 57.4507 49.2277 57.7468 48.8415 57.9507C48.5033 58.1293 48.1311 58.2322 47.7506 58.2545L47.5876 58.2593C47.3888 58.2594 47.1919 58.2354 46.9997 58.192L53.1559 73.23L57.3454 66.9429H57.3463C57.4416 66.8007 57.5759 66.6891 57.7331 66.6216C57.8902 66.5542 58.0635 66.5332 58.2321 66.5621L58.2331 66.5631L66.2331 67.9576L59.6344 51.816ZM18.1081 68.1675L24.8659 66.9888L21.1999 60.6041L18.1081 68.1675ZM24.2692 53.0943C24.3241 53.1498 24.3722 53.2118 24.4108 53.2799L33.5348 67.6959L35.0954 63.8765L28.192 52.8775L27.5758 52.8873H27.5749C26.8916 52.8942 26.2313 52.6397 25.7292 52.1763C25.4279 51.8982 25.1991 51.5566 25.0524 51.1812L24.2692 53.0943ZM30.2604 52.8482L35.9186 61.8638L37.5104 57.9732C37.0853 58.0724 36.6392 58.0695 36.2106 57.9547C35.5493 57.7774 34.9814 57.3529 34.6237 56.7691L32.4753 53.2623H32.4743C32.3851 53.1353 32.2685 53.0296 32.1325 52.9547C31.9936 52.8782 31.8387 52.8348 31.6803 52.8287L30.2604 52.8482ZM47.4206 58.0533L47.5876 58.0591L47.4215 58.0533C47.366 58.0495 47.3106 58.0442 47.2555 58.0367C47.3103 58.0441 47.3653 58.0495 47.4206 58.0533ZM48.7477 57.773C48.703 57.7966 48.6579 57.8196 48.612 57.8404L48.7477 57.774C48.7569 57.7691 48.765 57.7623 48.7741 57.7574C48.7651 57.7623 48.7567 57.7682 48.7477 57.773ZM49.6383 56.9761V56.9771L51.9245 53.5562V53.5552L49.6383 56.9761ZM47.0221 56.5347C47.0526 56.5529 47.0841 56.5695 47.1159 56.5845L47.0231 56.5347L46.0573 55.9576L47.0221 56.5347ZM41.696 55.5797L40.0221 56.4898V56.4908L41.696 55.5806C41.7249 55.5651 41.7547 55.5515 41.7848 55.5386C41.7549 55.5514 41.7248 55.5642 41.696 55.5797ZM43.1471 10.5718C42.9164 10.5672 42.6924 10.6515 42.5211 10.8062L39.4909 13.5767H39.4899C39.1476 13.8874 38.7309 14.1049 38.2799 14.2066C37.829 14.3083 37.3592 14.2905 36.9167 14.1568H36.9157L32.9792 12.9576C32.7578 12.8893 32.5184 12.9087 32.3112 13.0123C32.1041 13.1158 31.9451 13.2954 31.8669 13.5133L31.8659 13.5142L30.4606 17.3814C30.3023 17.8165 30.0338 18.2033 29.6813 18.5035C29.3287 18.8036 28.9037 19.0075 28.4489 19.0943H28.4479L24.4059 19.8609C24.178 19.9038 23.9751 20.0332 23.8395 20.2213C23.7041 20.4093 23.6452 20.6421 23.6764 20.8716L24.2311 24.9468C24.2929 25.4063 24.2342 25.8742 24.0612 26.3043C23.8881 26.7343 23.6066 27.1123 23.2438 27.4009L20.0192 29.9586V29.9595C19.8353 30.1037 19.7134 30.3132 19.6803 30.5445C19.6515 30.7467 19.692 30.9523 19.7936 31.1275L19.8415 31.2008V31.2017L22.2233 34.5513H22.2243C22.4916 34.9298 22.6565 35.3715 22.7028 35.8326C22.749 36.2936 22.6747 36.7591 22.4879 37.1832V37.1841L20.8229 40.9449C20.7284 41.1564 20.7191 41.3965 20.7965 41.6148C20.8741 41.8331 21.0322 42.0142 21.2389 42.1187L24.9196 43.9781H24.9206C25.3336 44.1884 25.6853 44.5027 25.9411 44.8892C26.1649 45.2275 26.3091 45.6118 26.3629 46.0123L26.3805 46.1851L26.653 50.2994V50.3033C26.6642 50.5346 26.766 50.7527 26.9362 50.9097C27.1066 51.0668 27.3325 51.1508 27.5641 51.1431H27.568L31.6823 51.0845H31.7194L31.8913 51.0904C32.2888 51.1169 32.6763 51.2318 33.0251 51.4273C33.3739 51.6229 33.6739 51.8939 33.904 52.2193L33.9987 52.3619L36.1461 55.8697L36.195 55.941C36.3161 56.1017 36.4882 56.2185 36.6842 56.2711C36.908 56.331 37.1465 56.3031 37.3503 56.1929L40.9665 54.2291C41.349 54.0111 41.7793 53.8906 42.2194 53.8795H42.2253C42.6462 53.8798 43.0607 53.9789 43.4352 54.1675L43.5934 54.2535V54.2545L47.1237 56.3629H47.1247C47.3238 56.4815 47.5615 56.52 47.7878 56.4693C48.0138 56.4185 48.2121 56.2827 48.3415 56.0904L50.6295 52.6695C50.8865 52.2829 51.2407 51.9707 51.6559 51.7632C52.0711 51.5559 52.5334 51.4611 52.9967 51.4879H52.9958L57.11 51.7037H57.112C57.3435 51.718 57.5718 51.6428 57.7487 51.4927C57.9256 51.3426 58.0378 51.1288 58.0612 50.898L58.4938 46.8052V46.8043C58.5446 46.3439 58.7143 45.9046 58.985 45.5289C59.256 45.153 59.6198 44.8535 60.0407 44.6597V44.6588L63.7819 42.9488C63.9927 42.8524 64.1593 42.6785 64.2458 42.4634C64.3213 42.2754 64.3309 42.0677 64.2751 41.8746L64.2467 41.7925L62.7311 37.9693V37.9683C62.5625 37.5393 62.5071 37.0733 62.571 36.6168C62.6349 36.1603 62.8164 35.7281 63.0963 35.3619L63.0973 35.3609L65.6149 32.1129C65.7572 31.9296 65.8237 31.6982 65.8004 31.4674C65.78 31.2653 65.692 31.0764 65.5524 30.9312L65.4889 30.8716L62.3708 28.189V28.1881C62.0204 27.885 61.7541 27.4964 61.5983 27.0601C61.4425 26.6236 61.4027 26.1535 61.4821 25.6968V25.6959L62.2008 21.6451C62.2411 21.417 62.1918 21.182 62.0641 20.9888C61.9522 20.8198 61.7871 20.6931 61.5963 20.6295L61.5124 20.606L57.5045 19.6793C57.0535 19.5737 56.6369 19.353 56.2965 19.0386C55.9562 18.7242 55.703 18.3258 55.5622 17.8843L54.3151 13.9664L54.2848 13.8843C54.2056 13.6995 54.066 13.5457 53.8883 13.4478C53.7105 13.35 53.506 13.3152 53.3073 13.3472L53.2223 13.3648L49.2428 14.4058H49.2419C48.7935 14.5215 48.3229 14.5195 47.8756 14.4C47.4283 14.2804 47.019 14.0472 46.6881 13.7232L46.6872 13.7222L43.7624 10.8297V10.8306C43.5976 10.6694 43.3776 10.5766 43.1471 10.5718ZM42.1081 55.4537C42.1536 55.449 42.1997 55.4478 42.2458 55.4488L42.3883 55.4605C42.3414 55.4534 42.2935 55.4489 42.2458 55.4478C42.1997 55.4468 42.1537 55.449 42.1081 55.4537ZM52.903 53.0689L57.0172 53.2847L52.903 53.0679C52.855 53.0647 52.8071 53.0648 52.7594 53.0679C52.807 53.0649 52.8551 53.0657 52.903 53.0689ZM58.569 52.8463C58.5057 52.8903 58.4404 52.9306 58.3737 52.9683C58.4402 52.9307 58.5059 52.8911 58.569 52.8472L58.7565 52.7027L58.569 52.8463ZM26.8004 51.0562C26.8081 51.0633 26.817 51.0689 26.8249 51.0757L26.8014 51.0562C26.7669 51.0244 26.7347 50.9903 26.7047 50.9547L26.8004 51.0562ZM60.2506 46.4605C60.2393 46.4763 60.2308 46.494 60.2204 46.5103L60.2506 46.4615C60.2787 46.4225 60.3088 46.385 60.3415 46.3502L60.2506 46.4605ZM42.5524 20.2008C42.7191 20.2012 42.8831 20.2484 43.0241 20.3375C43.1297 20.4042 43.219 20.4931 43.2878 20.5963L43.3493 20.7047L46.8708 28.0806L54.9772 29.1207H54.9782C55.1432 29.1426 55.299 29.2109 55.4274 29.317C55.5557 29.4231 55.6522 29.5633 55.7047 29.7213V29.7222C55.7571 29.8812 55.7635 30.0522 55.7223 30.2144C55.6811 30.3763 55.5938 30.5227 55.4723 30.6373L49.5456 36.2672L51.0612 44.2994H51.0602C51.0916 44.4634 51.0765 44.6332 51.0153 44.7886C50.954 44.944 50.8494 45.0788 50.7145 45.1773C50.5795 45.2759 50.4193 45.3342 50.2526 45.3453C50.0859 45.3563 49.9189 45.3197 49.7721 45.2398V45.2388L42.5876 41.3424L35.4206 45.2632L35.4196 45.2642C35.2862 45.3362 35.1365 45.372 34.985 45.3697H34.9831L34.9811 45.3707V45.3697C34.8529 45.3693 34.7262 45.3411 34.61 45.2867C34.4927 45.2317 34.3882 45.1519 34.3053 45.0523C34.2226 44.9528 34.1631 44.8357 34.1305 44.7105C34.0979 44.5851 34.093 44.4531 34.1169 44.3257L35.612 36.2896L29.6667 30.6812C29.5452 30.567 29.4584 30.4207 29.4167 30.2593C29.375 30.0977 29.3801 29.927 29.4313 29.7681C29.4826 29.6092 29.5783 29.4678 29.7067 29.3609C29.8351 29.2541 29.9912 29.1862 30.1569 29.1646L38.2594 28.0953L41.7565 20.7076L41.817 20.5992C41.8852 20.4953 41.9752 20.4067 42.0807 20.3394C42.2214 20.2498 42.3845 20.2013 42.5514 20.2008H42.5524ZM20.5251 43.4947L24.0426 45.2769L20.5251 43.4937C20.4547 43.458 20.3862 43.4193 20.32 43.3775L20.5251 43.4947ZM49.9333 45.0953C49.9373 45.097 49.9418 45.0976 49.946 45.0992C49.9195 45.0888 49.8929 45.0777 49.8678 45.064L49.9333 45.0953ZM50.5963 45.0162L50.653 44.9703C50.6566 44.967 50.6592 44.9628 50.6628 44.9595C50.6418 44.9794 50.6198 44.999 50.5963 45.0162ZM64.4284 44.3902L64.6129 44.2965C64.6181 44.2936 64.6225 44.2896 64.6276 44.2867C64.5628 44.3237 64.4968 44.359 64.4284 44.3902ZM65.695 43.066L65.7643 42.8707C65.7667 42.863 65.7679 42.8549 65.7702 42.8472C65.7483 42.9209 65.7239 42.9941 65.695 43.066ZM39.6413 29.2945L39.6403 29.2935C39.5776 29.4274 39.4833 29.5443 39.3639 29.6314C39.2742 29.6968 39.1729 29.7444 39.0661 29.772L38.9577 29.7925L32.2223 30.6715L37.1657 35.3336L37.1667 35.3345C37.2732 35.4358 37.3533 35.562 37.3991 35.7017C37.4449 35.8416 37.4555 35.9914 37.4294 36.1363V36.1373L36.1911 42.8189L42.1549 39.5582H42.1559C42.2848 39.4881 42.4291 39.4508 42.5758 39.4508C42.7227 39.4508 42.8678 39.488 42.9967 39.5582H42.9958L48.9704 42.7974L47.7096 36.1207C47.6821 35.9754 47.6926 35.8249 47.7379 35.6841C47.7834 35.5436 47.8633 35.4167 47.9704 35.315L52.8981 30.6246L46.1579 29.7584V29.7574C46.0112 29.7393 45.8714 29.6847 45.7516 29.5982C45.6616 29.5332 45.5844 29.452 45.5251 29.359L45.4723 29.2623L42.5485 23.149L39.6413 29.2945ZM22.3053 37.1021V37.1031C22.3376 37.0299 22.3656 36.9552 22.3903 36.8795C22.3657 36.9548 22.3374 37.0292 22.3053 37.1021ZM47.8961 35.9986C47.898 36.027 47.9016 36.0555 47.9069 36.0836V36.0826C47.9016 36.0544 47.8979 36.0261 47.8961 35.9976V35.9986ZM65.986 31.7603V31.7613C65.9924 31.7271 65.9975 31.6926 66.0006 31.6578V31.6568C65.9975 31.6916 65.9924 31.7261 65.986 31.7603ZM67.361 31.3072L67.3317 31.1021C67.3305 31.0955 67.3281 31.0892 67.3268 31.0826C67.3413 31.1567 67.3533 31.2315 67.361 31.3072ZM65.6188 30.7203C65.6457 30.7433 65.6716 30.7673 65.696 30.7925L65.6188 30.7193L62.5016 28.0367L65.6188 30.7203ZM30.0202 29.4039C30.0143 29.4062 30.0084 29.4082 30.0026 29.4107C30.0304 29.3988 30.0593 29.3895 30.0885 29.3814L30.0202 29.4039ZM23.8756 26.2291C23.8369 26.3253 23.791 26.4182 23.7409 26.5084C23.7651 26.4649 23.7896 26.4215 23.8112 26.3765L23.8756 26.23V26.2291ZM63.0124 26.1314C63.0116 26.164 63.0122 26.1966 63.0143 26.2291C63.0123 26.1966 63.0115 26.164 63.0124 26.1314ZM63.027 25.9693C63.0196 26.0121 63.0156 26.0551 63.0133 26.0982C63.0158 26.0551 63.0206 26.0121 63.028 25.9693L63.7467 21.9185H63.7458L63.027 25.9693ZM62.2311 20.8785C62.2504 20.9077 62.2685 20.9376 62.2848 20.9683C62.2685 20.9373 62.2506 20.907 62.2311 20.8775V20.8785ZM23.571 20.2847C23.5649 20.2979 23.5599 20.3114 23.5544 20.3248C23.5616 20.3074 23.5687 20.29 23.5768 20.273L23.571 20.2847ZM24.1667 19.7222C24.1459 19.7304 24.1253 19.7392 24.1051 19.7486C24.129 19.7374 24.1537 19.7278 24.1784 19.7183L24.1667 19.7222ZM62.0963 19.1441C62.1707 19.1689 62.2438 19.1965 62.3151 19.2281C62.1724 19.1648 62.0229 19.1152 61.8688 19.0797L62.0963 19.1441ZM29.5514 18.3511L29.6559 18.2574C29.6597 18.2537 29.6629 18.2493 29.6667 18.2457C29.6293 18.2818 29.5912 18.3173 29.5514 18.3511ZM53.1715 13.1705L49.3825 14.1627L53.1715 13.1715C53.2059 13.1625 53.2403 13.1546 53.2751 13.149C53.2404 13.1546 53.2058 13.1615 53.1715 13.1705ZM37.9274 14.0591C37.9779 14.0543 38.0285 14.0495 38.0788 14.0416L38.0827 14.0406C38.0311 14.0485 37.9792 14.0542 37.9274 14.0591ZM43.151 10.3716C42.8696 10.366 42.5963 10.4682 42.3874 10.6568L39.3561 13.4283C39.2796 13.4978 39.198 13.5616 39.1139 13.6207C39.1545 13.5922 39.1952 13.5637 39.234 13.5328C39.2757 13.4996 39.3165 13.4652 39.3561 13.4293L42.3874 10.6578C42.4396 10.6106 42.4959 10.5688 42.5553 10.5328C42.5849 10.5148 42.6151 10.498 42.6461 10.483C42.7708 10.4225 42.9062 10.3861 43.0456 10.3756C43.0804 10.3729 43.1158 10.3719 43.151 10.3726V10.3716ZM43.903 10.6881L46.8278 13.5806V13.5797L43.903 10.6871V10.6881Z" fill="#409C86"/>
</svg>
