<svg width="92" height="93" viewBox="0 0 92 93" fill="none" xmlns="http://www.w3.org/2000/svg">
<path d="M74.2733 92.9991C74.0257 92.9991 73.7815 92.9422 73.5594 92.833L66.5581 89.383C63.8092 88.0408 61.4942 85.9509 59.8789 83.3531C58.2636 80.7553 57.4137 77.7548 57.4259 74.6957V58.943C57.4258 58.5676 57.5566 58.204 57.7957 57.9146C58.0348 57.6252 58.3671 57.4281 58.7357 57.3573C65.6698 56.0271 70.2396 54.0153 73.113 51.0266C73.2638 50.87 73.4445 50.7453 73.6445 50.6602C73.8445 50.5751 74.0599 50.5313 74.2773 50.5312C74.4946 50.5313 74.7094 50.5752 74.9093 50.6603C75.1091 50.7454 75.2897 50.87 75.4403 51.0266C78.3137 54.0153 82.8826 56.0271 89.8167 57.3573C90.1853 57.4281 90.5176 57.6252 90.7567 57.9146C90.9958 58.204 91.1266 58.5676 91.1265 58.943V74.6957C91.1389 77.7548 90.2888 80.7554 88.6735 83.3532C87.0582 85.951 84.7432 88.0409 81.9943 89.383L74.9939 92.8321C74.7699 92.9427 74.5231 92.9999 74.2733 92.9991ZM60.6504 60.2631V74.6957C60.6409 77.1519 61.3242 79.5611 62.6215 81.6468C63.9187 83.7325 65.7777 85.4102 67.985 86.4875L74.2733 89.585L80.5597 86.4875C82.7672 85.4103 84.6264 83.7326 85.9237 81.6469C87.221 79.5612 87.904 77.152 87.8943 74.6957V60.2584C81.7914 58.9578 77.3949 57.0585 74.2733 54.3613C71.1499 57.0631 66.7534 58.9624 60.6504 60.2584V60.2631Z" fill="#409C86"/>
<path d="M73.4001 78.6077C73.1882 78.608 72.978 78.5664 72.7822 78.4854C72.5863 78.4043 72.4085 78.2854 72.2588 78.1354L67.5159 73.3921C67.366 73.2422 67.2471 73.0642 67.1659 72.8683C67.0848 72.6725 67.043 72.4626 67.043 72.2506C67.043 72.0386 67.0848 71.8286 67.1659 71.6327C67.2471 71.4369 67.366 71.2589 67.5159 71.109C67.6658 70.9591 67.8434 70.8402 68.0393 70.759C68.2352 70.6779 68.4453 70.6362 68.6573 70.6362C68.8693 70.6362 69.0794 70.6779 69.2752 70.759C69.4711 70.8402 69.6487 70.9591 69.7986 71.109L73.3965 74.7112L80.9874 67.1213C81.1373 66.9714 81.3149 66.8524 81.5108 66.7713C81.7067 66.6902 81.9168 66.6484 82.1288 66.6484C82.3408 66.6484 82.5509 66.6902 82.7467 66.7713C82.9426 66.8524 83.1202 66.9714 83.2701 67.1213C83.42 67.2712 83.539 67.4491 83.6201 67.645C83.7012 67.8408 83.743 68.0508 83.743 68.2628C83.743 68.4748 83.7012 68.6847 83.6201 68.8806C83.539 69.0765 83.42 69.2544 83.2701 69.4043L74.5383 78.1354C74.389 78.2851 74.2116 78.4039 74.0163 78.4849C73.821 78.566 73.6116 78.6077 73.4001 78.6077Z" fill="#409C86"/>
<path d="M57.2502 92.9574H7.50303C5.51373 92.9552 3.60694 92.164 2.20028 90.7574C0.793631 89.3507 0.00219745 87.4435 0 85.4542V39.9671C0.00219789 37.9779 0.793605 36.0708 2.20028 34.6643C3.60696 33.2578 5.51381 32.4668 7.50303 32.4648H68.3925C70.3819 32.4668 72.2889 33.2577 73.6957 34.6642C75.1026 36.0707 75.894 37.9778 75.8965 39.9671V45.3321C75.8965 45.7602 75.7267 46.1708 75.424 46.4736C75.1213 46.7763 74.7103 46.9464 74.2822 46.9464C73.8541 46.9464 73.4436 46.7763 73.1408 46.4736C72.8381 46.1708 72.6679 45.7602 72.6679 45.3321V39.9671C72.6662 38.8338 72.2154 37.7475 71.4139 36.9464C70.6124 36.1452 69.5258 35.6946 68.3925 35.6934H7.50303C6.36986 35.6946 5.28345 36.1453 4.48209 36.9465C3.68073 37.7477 3.23005 38.8339 3.22858 39.9671V85.4542C3.23005 86.5874 3.68076 87.6739 4.48209 88.4752C5.28343 89.2766 6.36978 89.7274 7.50303 89.7288H57.2502C57.6783 89.7288 58.0888 89.8989 58.3915 90.2017C58.6942 90.5044 58.8644 90.915 58.8644 91.3431C58.8644 91.7713 58.6942 92.1819 58.3915 92.4846C58.0888 92.7873 57.6783 92.9574 57.2502 92.9574Z" fill="#409C86"/>
<path d="M59.4537 35.6694H16.4268C15.9987 35.6694 15.5882 35.4993 15.2854 35.1965C14.9827 34.8938 14.8125 34.4832 14.8125 34.0551V23.1276C14.8125 16.9938 17.2495 11.1112 21.5868 6.77392C25.924 2.43663 31.8066 0 37.9405 0C44.0743 0 49.9569 2.43663 54.2942 6.77392C58.6315 11.1112 61.068 16.9938 61.068 23.1276V34.0551C61.068 34.4832 60.8978 34.8938 60.5951 35.1965C60.2923 35.4993 59.8818 35.6694 59.4537 35.6694ZM18.0411 32.4408H57.8394V23.124C57.8394 17.8464 55.7428 12.785 52.011 9.05314C48.2792 5.32133 43.2181 3.22487 37.9405 3.22487C32.6629 3.22487 27.6013 5.32133 23.8695 9.05314C20.1377 12.785 18.0411 17.8464 18.0411 23.124V32.4408Z" fill="#409C86"/>
<path d="M50.9566 35.704H24.9307C24.5026 35.704 24.0916 35.5339 23.7889 35.2312C23.4862 34.9284 23.3164 34.5178 23.3164 34.0897V22.7758C23.3164 18.8964 24.8572 15.1758 27.6003 12.4327C30.3435 9.68953 34.0643 8.14844 37.9437 8.14844C41.8231 8.14844 45.5434 9.68953 48.2866 12.4327C51.0297 15.1758 52.5709 18.8964 52.5709 22.7758V34.0934C52.57 34.5209 52.3993 34.9306 52.0966 35.2325C51.794 35.5345 51.3841 35.704 50.9566 35.704ZM26.545 32.4754H49.3424V22.7758C49.3424 19.7527 48.1415 16.8534 46.0039 14.7157C43.8662 12.5781 40.9668 11.377 37.9437 11.377C34.9205 11.377 32.0212 12.5781 29.8835 14.7157C27.7458 16.8534 26.545 19.7527 26.545 22.7758V32.4754Z" fill="#409C86"/>
<path d="M37.9509 78.7638C36.6673 78.7623 35.4367 78.2517 34.5291 77.3439C33.6216 76.4362 33.1111 75.2054 33.1099 73.9218V63.7222C32.1002 62.9815 31.2722 62.0208 30.6889 60.9128C30.1055 59.8047 29.7822 58.5785 29.743 57.3269C29.7277 56.2487 29.9247 55.1781 30.3231 54.1762C30.7216 53.1743 31.3138 52.2607 32.0654 51.4876C32.8169 50.7144 33.7132 50.0969 34.7034 49.6703C35.6937 49.2436 36.7584 49.0161 37.8365 49.0008C38.9147 48.9856 39.9853 49.1828 40.9872 49.5813C41.9891 49.9798 42.9026 50.5717 43.6757 51.3233C44.4489 52.0748 45.0665 52.9713 45.4932 53.9615C45.9198 54.9517 46.1472 56.0163 46.1625 57.0945C46.1606 58.3864 45.8545 59.6598 45.2689 60.8114C44.6833 61.963 43.8349 62.9605 42.792 63.7231V73.9218C42.7906 75.2053 42.2798 76.4359 41.3723 77.3436C40.4648 78.2513 39.2345 78.7621 37.9509 78.7638ZM37.9509 52.1104H37.8658C36.5424 52.1568 35.2898 52.7189 34.3751 53.6765C33.4604 54.6341 32.9564 55.9114 32.9707 57.2356C32.9985 58.0957 33.2472 58.9342 33.6932 59.6703C34.1391 60.4064 34.7669 61.0153 35.5164 61.4383C35.7661 61.5787 35.9736 61.7829 36.1182 62.0301C36.2628 62.2773 36.3393 62.5586 36.3394 62.845V73.9209C36.3394 74.349 36.5096 74.7596 36.8123 75.0624C37.115 75.3651 37.5255 75.5352 37.9536 75.5352C38.3818 75.5352 38.7923 75.3651 39.095 75.0624C39.3977 74.7596 39.5679 74.349 39.5679 73.9209V62.845C39.5679 62.5585 39.6439 62.2771 39.7886 62.0299C39.9334 61.7826 40.1418 61.5784 40.3918 61.4383C41.3544 60.8999 42.1108 60.0573 42.5429 59.0425C42.9751 58.0278 43.0583 56.8983 42.7794 55.8312C42.5005 54.7641 41.8755 53.8198 41.0021 53.1462C40.1287 52.4727 39.0566 52.108 37.9536 52.1095L37.9509 52.1104Z" fill="#409C86"/>
</svg>
