<svg width="85" height="85" viewBox="0 0 85 85" fill="none" xmlns="http://www.w3.org/2000/svg">
<circle cx="42.5" cy="42.5" r="42.5" fill="#409C86"/>
<path d="M64.9043 52.9043C65.1259 52.9023 65.3405 52.9768 65.5127 53.1133L65.584 53.1748L65.5859 53.1777L66.6904 54.2822C67.0492 54.0152 67.486 53.8672 67.9385 53.8672C68.4928 53.8673 69.0249 54.0876 69.417 54.4795L74.6289 59.6924H74.6299C74.824 59.8865 74.9789 60.1175 75.084 60.3711C75.189 60.6246 75.2431 60.8965 75.2432 61.1709C75.2432 61.4454 75.189 61.7181 75.084 61.9717C74.9789 62.2252 74.8239 62.4554 74.6299 62.6494L73.6934 63.5859C73.4999 63.7806 73.2692 63.9349 73.0156 64.04C72.7618 64.1452 72.4896 64.199 72.2148 64.1982C71.9405 64.1989 71.6685 64.146 71.415 64.041C71.2247 63.9621 71.0471 63.8552 70.8887 63.7246L70.7373 63.5859L65.5234 58.373C65.1322 57.9806 64.9121 57.4487 64.9121 56.8945C64.9121 56.4428 65.0602 56.0071 65.3262 55.6484L64.2188 54.541C64.0429 54.359 63.9452 54.1154 63.9473 53.8623C63.9494 53.6091 64.0514 53.3666 64.2305 53.1875C64.4094 53.0085 64.6512 52.9066 64.9043 52.9043ZM37.6533 19.9971C41.2901 20.009 44.8714 20.9178 48.0771 22.6484C51.2513 24.3621 53.9545 26.8249 55.9541 29.8184L56.3447 30.4248V30.4258C56.4778 30.6431 56.5196 30.9043 56.4609 31.1523C56.4022 31.4002 56.2484 31.6154 56.0322 31.75C55.816 31.8846 55.555 31.9278 55.3066 31.8711C55.0582 31.8142 54.8414 31.6616 54.7051 31.4463V31.4453C54.5318 31.1666 54.35 30.894 54.1641 30.625C53.6964 30.9699 53.0733 31.2648 52.3506 31.5166C50.7629 32.0698 48.6477 32.4385 46.5234 32.6855C46.3706 32.7033 46.2174 32.7188 46.0645 32.7354C46.2275 33.5972 46.3715 34.4937 46.4912 35.4229C46.5237 35.6766 46.454 35.9332 46.2979 36.1357C46.2204 36.236 46.1236 36.3207 46.0137 36.3838C45.9037 36.4468 45.7819 36.4877 45.6562 36.5039C45.4023 36.5366 45.1451 36.4669 44.9424 36.3105C44.7397 36.154 44.6079 35.9229 44.5752 35.6689C44.4524 34.7157 44.3025 33.7968 44.1309 32.917C40.775 33.1835 37.868 33.1914 37.5781 33.1914C37.2896 33.1914 34.3732 33.1838 31.0098 32.916C30.5363 35.345 30.2411 38.1094 30.1895 41.1406H41.9658C42.2219 41.1407 42.4674 41.2428 42.6484 41.4238C42.8295 41.6049 42.9316 41.8504 42.9316 42.1064C42.9316 42.3625 42.8295 42.608 42.6484 42.7891C42.4674 42.9701 42.2219 43.0722 41.9658 43.0723H30.1895C30.2439 46.1701 30.5554 48.9882 31.0488 51.4541C33.2199 51.2654 35.4 51.1824 37.5811 51.2051L37.5801 51.2061C39.0639 51.2061 40.525 51.2416 41.9404 51.3135L43.3408 51.3965L43.3438 51.3975C43.5955 51.4199 43.8291 51.5402 43.9932 51.7324C44.1571 51.9246 44.239 52.1738 44.2217 52.4258C44.2042 52.6777 44.0891 52.9132 43.9004 53.0811C43.7351 53.2279 43.5246 53.3125 43.3057 53.3232H43.208C41.4087 53.1992 39.5145 53.1367 37.5791 53.1367C35.3189 53.1367 33.2826 53.2194 31.4834 53.3564C31.8059 54.6075 32.1754 55.7464 32.584 56.7598C33.2977 58.5296 34.1209 59.9106 34.9834 60.8457C35.8077 61.7393 36.6527 62.2087 37.4619 62.25C37.5257 62.2504 37.5895 62.2512 37.6533 62.251C38.669 62.2186 39.7112 61.5402 40.6914 60.2402C41.6929 58.9119 42.607 56.9656 43.3379 54.5137C43.3741 54.3923 43.4338 54.279 43.5137 54.1807C43.5936 54.0824 43.6923 54.0007 43.8037 53.9404C43.9152 53.8802 44.038 53.8422 44.1641 53.8291C44.29 53.8161 44.4177 53.8282 44.5391 53.8643C44.6605 53.9005 44.7747 53.9601 44.873 54.04C44.9712 54.1199 45.053 54.2188 45.1133 54.3301C45.1735 54.4415 45.2116 54.5644 45.2246 54.6904C45.2376 54.8166 45.2257 54.9449 45.1895 55.0664C44.334 57.9365 43.2208 60.209 41.9316 61.7676C41.929 61.7708 41.9255 61.7732 41.9229 61.7764C45.36 61.0178 48.551 59.3743 51.167 56.9883C51.2596 56.9016 51.3685 56.8337 51.4873 56.7891C51.6072 56.7441 51.7354 56.7237 51.8633 56.7285C51.9912 56.7334 52.1173 56.7635 52.2334 56.8174C52.3494 56.8713 52.4538 56.9475 52.54 57.042C52.6264 57.1366 52.6932 57.2476 52.7363 57.3682C52.7794 57.4888 52.7978 57.6172 52.791 57.7451C52.7841 57.8728 52.7519 57.9981 52.6963 58.1133C52.6406 58.2285 52.5626 58.3322 52.4668 58.417L52.4658 58.416C48.3989 62.1327 43.0875 64.191 37.5781 64.1855V64.1865L37.5771 64.1855V64.1865C33.7296 64.1859 29.9491 63.18 26.6094 61.2695C24.2492 59.9193 22.1689 58.1487 20.4619 56.0566C20.4273 56.0304 20.3934 56.0028 20.3623 55.9717C20.2811 55.8904 20.2163 55.7958 20.1689 55.6934C19.5743 54.9323 19.028 54.1309 18.5352 53.293C16.5845 49.9764 15.5342 46.2077 15.4873 42.3604C15.4866 42.3053 15.4876 42.2503 15.4873 42.1953C15.4846 42.1659 15.4834 42.1362 15.4834 42.1064C15.4834 42.073 15.4849 42.0398 15.4883 42.0068C15.5025 38.2809 16.4565 34.6165 18.2686 31.3564C20.1379 27.9934 22.8533 25.1769 26.1455 23.1855C29.4378 21.1942 33.1935 20.0971 37.04 20.0029C37.1837 19.9994 37.3272 19.9997 37.4707 19.999C37.5065 19.9981 37.5422 19.9961 37.5781 19.9961C37.6032 19.9961 37.6283 19.9966 37.6533 19.9971ZM72.9453 63.8721C72.9301 63.8784 72.9138 63.8818 72.8984 63.8877L72.9463 63.8721C73.004 63.8481 73.0604 63.8214 73.1152 63.792L72.9453 63.8721ZM72.457 62.3496C72.4423 62.3643 72.4262 62.3773 72.4092 62.3887L72.457 62.3506L73.3936 61.4131L72.457 62.3496ZM26.6992 61.1113C27.3206 61.4668 27.9576 61.7906 28.6074 62.082C27.9579 61.7906 27.3214 61.4667 26.7002 61.1113C26.493 60.9928 26.2879 60.871 26.085 60.7461L26.6992 61.1113ZM67.877 55.8105C67.8581 55.8184 67.8407 55.8303 67.8262 55.8447V55.8457L66.8896 56.7822L66.8887 56.7812C66.859 56.8111 66.8428 56.8524 66.8428 56.8945C66.8428 56.9367 66.8599 56.9769 66.8896 57.0068L72.1025 62.2207C72.1324 62.2505 72.1735 62.2676 72.2158 62.2676C72.2579 62.2674 72.2984 62.2504 72.3281 62.2207L73.2646 61.2842L73.2988 61.2324C73.3067 61.2133 73.3115 61.1926 73.3115 61.1719C73.3115 61.1512 73.3067 61.1305 73.2988 61.1113C73.2909 61.0921 73.2793 61.0743 73.2646 61.0596L68.0508 55.8447V55.8457C68.0212 55.8162 67.9812 55.7991 67.9395 55.7988H67.9375C67.917 55.7988 67.896 55.8027 67.877 55.8105ZM74.915 61.9014C74.8692 62.012 74.8114 62.1172 74.7461 62.2168C74.7773 62.1694 74.8082 62.1214 74.835 62.0713L74.915 61.9014ZM29.5479 53.5352C28.3136 53.6682 27.22 53.8249 26.2734 53.9971C24.9452 54.2387 23.9095 54.5064 23.1807 54.7646C22.8162 54.8938 22.5324 55.0186 22.3291 55.1348C22.2988 55.1521 22.2709 55.1692 22.2451 55.1855C23.8974 57.1202 25.9093 58.7365 28.1855 59.9346C29.7972 60.7828 31.5067 61.4032 33.2656 61.7881C32.3844 60.7297 31.5919 59.3539 30.9121 57.7256C30.3889 56.4724 29.9302 55.0665 29.5479 53.5352ZM75.0596 61.1719C75.0595 61.2872 75.048 61.4017 75.0273 61.5146C75.0368 61.4629 75.0456 61.4108 75.0508 61.3584C75.0569 61.2964 75.0605 61.2334 75.0605 61.1709C75.0605 61.1137 75.0559 61.0568 75.0508 61C75.0559 61.0569 75.0596 61.1145 75.0596 61.1719ZM74.915 60.4414C74.9608 60.5519 74.9943 60.6666 75.0186 60.7832C75.007 60.7275 74.9951 60.6717 74.9785 60.6172L74.915 60.4414ZM21.6826 57.1719C21.8138 57.3102 21.9483 57.4453 22.083 57.5801C21.7812 57.2781 21.4869 56.9687 21.2031 56.6494L21.6826 57.1719ZM53.4531 33.2627C55.7108 32.8136 58.0511 33.044 60.1777 33.9248C62.3045 34.8057 64.1225 36.2979 65.4014 38.2119C66.6802 40.1258 67.3632 42.3759 67.3633 44.6777V44.6787C67.3591 47.7641 66.1309 50.7216 63.9492 52.9033C61.7675 55.085 58.81 56.3132 55.7246 56.3174H55.7236C53.4218 56.3173 51.1717 55.6343 49.2578 54.3555C47.3438 53.0766 45.8516 51.2586 44.9707 49.1318C44.0899 47.0052 43.8595 44.6649 44.3086 42.4072C44.7577 40.1496 45.8664 38.0759 47.4941 36.4482C49.1218 34.8205 51.1954 33.7118 53.4531 33.2627ZM44.8223 55.6289C44.8316 55.5999 44.8423 55.5712 44.8516 55.542L45.0146 55.0137H45.0137C44.9515 55.2221 44.8873 55.4271 44.8223 55.6289ZM67.8711 55.623C67.8661 55.624 67.8614 55.6258 67.8564 55.627C67.8616 55.6258 67.8669 55.6241 67.8721 55.623L67.9385 55.6162L67.8711 55.623ZM45.042 54.709C45.0446 54.7342 45.0467 54.7599 45.0469 54.7852L45.043 54.709C45.0403 54.6834 45.0355 54.658 45.0303 54.6328C45.0354 54.658 45.0393 54.6834 45.042 54.709ZM56.168 54.5527C56.2227 54.5503 56.2774 54.5493 56.332 54.5459L56.377 54.542C56.3074 54.5466 56.2377 54.5496 56.168 54.5527ZM55.7236 34.9668C53.8039 34.9669 51.9273 35.536 50.3311 36.6025C48.7348 37.6691 47.4906 39.1853 46.7559 40.959C46.0211 42.7328 45.8286 44.6853 46.2031 46.5684C46.5777 48.4511 47.502 50.1806 48.8594 51.5381C50.217 52.8957 51.947 53.8207 53.8301 54.1953C55.713 54.5699 57.6648 54.3772 59.4385 53.6426C61.2123 52.9078 62.7292 51.6638 63.7959 50.0674C64.8625 48.471 65.4316 46.5937 65.4316 44.6738C65.428 42.1004 64.4037 39.6332 62.584 37.8135C60.7642 35.9939 58.2971 34.9703 55.7236 34.9668ZM44.7568 54.1816C44.7587 54.1832 44.7608 54.185 44.7627 54.1865L44.7578 54.1816C44.7515 54.1766 44.7437 54.1729 44.7373 54.168C44.7436 54.1728 44.7507 54.1766 44.7568 54.1816ZM52.7334 54.1016C52.7692 54.1129 52.8058 54.1219 52.8418 54.1328C52.787 54.1161 52.7322 54.0997 52.6777 54.082L52.7334 54.1016ZM18.3408 52.5781C18.4547 52.7871 18.5715 52.9947 18.6924 53.2002C18.8133 53.4058 18.9371 53.6094 19.0645 53.8105C18.9372 53.6095 18.8142 53.4057 18.6934 53.2002C18.4515 52.789 18.2235 52.3707 18.0098 51.9463H18.0088C18.1157 52.1586 18.2268 52.369 18.3408 52.5781ZM17.4375 43.0723C17.577 45.9261 18.3206 48.7328 19.6387 51.2998C20.0632 52.1266 20.5457 52.9173 21.0752 53.6719C21.867 53.1307 23.2659 52.5957 25.709 52.1348L25.7119 52.1338C26.847 51.9429 27.9864 51.7818 29.1289 51.6494C28.6166 49.0456 28.3116 46.1489 28.2578 43.0723H17.4375ZM31.7451 53.1533C31.6415 53.1608 31.5386 53.1689 31.4365 53.1768H31.4375C31.5393 53.1689 31.6418 53.1608 31.7451 53.1533ZM43.7783 52.9443L43.8574 52.8623C43.8612 52.8578 43.8635 52.8522 43.8672 52.8477C43.8399 52.8817 43.8114 52.915 43.7783 52.9443ZM47.1406 52.2666C47.2334 52.3715 47.3282 52.4747 47.4248 52.5762L47.1406 52.2656C47.0479 52.1608 46.9569 52.0545 46.8682 51.9463L47.1406 52.2666ZM43.8535 51.8506C43.9164 51.9243 43.9634 52.009 43.9951 52.0986C43.9802 52.0564 43.9634 52.0148 43.9414 51.9756C43.9167 51.9316 43.8877 51.8895 43.8545 51.8506C43.8211 51.8115 43.784 51.7765 43.7441 51.7451L43.8535 51.8506ZM40.3125 51.4307C39.8952 51.4177 39.4748 51.4064 39.0518 51.3994L38.9658 51.3984C39.4178 51.4057 39.867 51.4168 40.3125 51.4307ZM16.002 45.9014C16.0431 46.1343 16.0881 46.3664 16.1367 46.5977C16.088 46.3661 16.0431 46.1336 16.002 45.9004V45.9014ZM46.332 41.5752C46.2628 41.785 46.2004 41.9967 46.1455 42.21C46.2023 41.9893 46.2677 41.7706 46.3398 41.5537L46.332 41.5752ZM20.9902 30.624C19.2042 33.2079 18.0372 36.1844 17.6025 39.3223C17.5187 39.9273 17.466 40.5341 17.4375 41.1406H28.2578C28.3088 38.1321 28.6014 35.2954 29.0918 32.7354C28.9386 32.7188 28.785 32.7034 28.6318 32.6855C26.5077 32.4385 24.3933 32.0698 22.8057 31.5166C22.0821 31.2645 21.4581 30.9694 20.9902 30.624ZM30.041 39.8574C30.0239 40.2796 30.0132 40.7074 30.0059 41.1406C30.0068 41.0813 30.0066 41.022 30.0078 40.9629C30.0153 40.5903 30.0261 40.2218 30.041 39.8574ZM45.8438 36.2627C45.847 36.2613 45.8512 36.2612 45.8545 36.2598L45.9229 36.2256L45.9219 36.2246C45.8966 36.2391 45.8703 36.2512 45.8438 36.2627ZM56.0078 33.2256C56.1482 33.2291 56.2886 33.2348 56.4287 33.2432L56.0078 33.2246C55.8679 33.2211 55.7279 33.221 55.5879 33.2227C55.7279 33.221 55.8679 33.2221 56.0078 33.2256ZM37.5781 21.9277C36.7338 21.9277 35.8474 22.4002 34.9834 23.3369C34.1209 24.2721 33.2977 25.6529 32.584 27.4229C32.1527 28.4924 31.7642 29.7015 31.4297 31.0352C33.2417 31.1746 35.2957 31.2598 37.5781 31.2598C39.8554 31.2598 41.905 31.1743 43.7139 31.0352C43.1954 28.9545 42.5431 27.1513 41.7988 25.71C41.1721 24.4964 40.4848 23.5465 39.7676 22.9023C39.0509 22.2589 38.3127 21.9279 37.5781 21.9277ZM54.6143 30.9648C54.5483 30.8638 54.4808 30.7638 54.4131 30.6641C54.4808 30.7638 54.5483 30.8638 54.6143 30.9648ZM33.2666 22.3906C29.2594 23.2676 25.6137 25.3457 22.8174 28.3496C22.5807 28.6039 22.3533 28.8657 22.1309 29.1309C22.1814 29.17 22.246 29.2138 22.3281 29.2607C22.5314 29.377 22.8151 29.5026 23.1797 29.6318C23.9085 29.8901 24.9441 30.1578 26.2725 30.3994C27.2068 30.5694 28.2843 30.7235 29.499 30.8555C29.8914 29.2436 30.3654 27.7666 30.9121 26.457C31.5924 24.8273 32.3846 23.4496 33.2666 22.3906ZM41.9307 22.4004C42.3764 22.9361 42.7998 23.5526 43.1953 24.2441C44.1936 25.9899 45.0318 28.2252 45.6621 30.8535C46.8743 30.7216 47.95 30.5681 48.8828 30.3984C50.2114 30.1567 51.2477 29.8901 51.9766 29.6318C52.3413 29.5026 52.6248 29.377 52.8281 29.2607C52.9099 29.214 52.9733 29.1691 53.0234 29.1299C50.9921 26.7089 48.4132 24.7862 45.4814 23.5371C44.3299 23.0465 43.1409 22.6679 41.9307 22.4004ZM52.459 29.6396C52.4827 29.6297 52.5065 29.6212 52.5293 29.6113L52.5352 29.6084C52.5105 29.6192 52.4848 29.6288 52.459 29.6396ZM53.1523 28.9971V28.9961C53.1387 28.9798 53.1251 28.9635 53.1113 28.9473C53.1252 28.9637 53.1385 28.9806 53.1523 28.9971ZM52.833 28.627C52.8 28.5896 52.7676 28.5518 52.7344 28.5146C52.7676 28.5518 52.8 28.5896 52.833 28.627ZM22.6836 28.2246C22.5944 28.3204 22.5061 28.4173 22.4189 28.5146L22.6836 28.2256C22.8573 28.039 23.0338 27.8552 23.2139 27.6758C23.0339 27.8551 22.8572 28.0381 22.6836 28.2246ZM52.4688 28.2246C52.4339 28.1872 52.4004 28.1485 52.3652 28.1113L52.3311 28.0762C52.3775 28.1251 52.4228 28.1752 52.4688 28.2246Z" fill="url(#paint0_linear_637_53777)"/>
<defs>
<linearGradient id="paint0_linear_637_53777" x1="17.7901" y1="63.5234" x2="80.4118" y2="44.3037" gradientUnits="userSpaceOnUse">
<stop stop-color="#F9FAFC"/>
<stop offset="1" stop-color="#F0F2F5"/>
</linearGradient>
</defs>
</svg>
