<svg width="26" height="31" viewBox="0 0 26 31" fill="none" xmlns="http://www.w3.org/2000/svg">
<path d="M12.9932 31C11.791 31 10.6662 30.7756 9.61879 30.3267C8.57142 29.8778 7.64699 29.2503 6.84552 28.4441C6.05316 27.6472 5.43384 26.7173 4.98756 25.6547C4.54129 24.6012 4.31815 23.4744 4.31815 22.2744C4.31815 21.0652 4.54129 19.9338 4.98756 18.8803C5.43384 17.8177 6.05316 16.8879 6.84552 16.0909C7.64699 15.2847 8.57142 14.6572 9.61879 14.2083C10.6662 13.7595 11.791 13.535 12.9932 13.535C14.1954 13.535 15.3202 13.7595 16.3675 14.2083C17.424 14.6572 18.3485 15.2847 19.1408 16.0909C19.9332 16.8879 20.5525 17.8177 20.9988 18.8803C21.4542 19.9338 21.6818 21.0652 21.6818 22.2744C21.6818 23.4744 21.4542 24.6012 20.9988 25.6547C20.5525 26.7173 19.9332 27.6472 19.1408 28.4441C18.3485 29.2503 17.424 29.8778 16.3675 30.3267C15.3202 30.7756 14.1954 31 12.9932 31ZM10.5204 26.7677L13.0068 24.9402L15.4932 26.7677C15.7573 26.9601 15.9896 26.9784 16.1899 26.8227C16.3994 26.6761 16.4541 26.4517 16.3539 26.1494L15.3703 23.195L17.8703 21.3812C18.0342 21.2713 18.1253 21.1384 18.1435 20.9827C18.1709 20.8178 18.1344 20.6758 18.0342 20.5567C17.9341 20.4285 17.7747 20.3644 17.5561 20.3644L14.4686 20.3918L13.526 17.4238C13.4258 17.1215 13.2527 16.9703 13.0068 16.9703C12.7609 16.9703 12.5879 17.1215 12.4877 17.4238L11.5451 20.3918L8.45757 20.3644C8.23899 20.3644 8.07505 20.4285 7.96576 20.5567C7.86557 20.6758 7.82914 20.8178 7.85647 20.9827C7.88379 21.1384 7.97487 21.2759 8.1297 21.3949L10.6434 23.195L9.65978 26.1494C9.55959 26.4517 9.60968 26.6761 9.81005 26.8227C10.0195 26.9784 10.2563 26.9601 10.5204 26.7677ZM4.67335 15.7336L0.137753 7.54388C0.037569 7.36067 -0.00796917 7.17287 0.00113845 6.9805C0.0102461 6.78812 0.0739995 6.60491 0.192399 6.43085L3.78536 0.920656L9.97399 12.1059C8.9084 12.4174 7.92477 12.8892 7.02312 13.5213C6.13057 14.1442 5.34732 14.8816 4.67335 15.7336ZM9.93301 7.42021L5.76627 0H20.2337L16.067 7.42021H9.93301ZM16.026 12.1059L22.2146 0.920656L25.8076 6.43085C25.926 6.60491 25.9898 6.78812 25.9989 6.9805C26.008 7.17287 25.9624 7.36067 25.8622 7.54388L21.3266 15.7336C20.6527 14.8816 19.8649 14.1442 18.9632 13.5213C18.0707 12.8892 17.0916 12.4174 16.026 12.1059Z" fill="#409C86"/>
</svg>
